<svg width="22" height="22" viewBox="0 0 22 22" fill="none" xmlns="http://www.w3.org/2000/svg">
<path d="M19.6115 15.0828V17.757C19.6125 18.0053 19.5616 18.251 19.4622 18.4785C19.3627 18.706 19.2168 18.9102 19.0339 19.078C18.851 19.2458 18.635 19.3736 18.3998 19.4531C18.1646 19.5327 17.9154 19.5622 17.6682 19.5399C14.9251 19.2418 12.2902 18.3045 9.97522 16.8032C7.8214 15.4346 5.99533 13.6085 4.62671 11.4547C3.12019 9.12917 2.18265 6.48147 1.89005 3.7261C1.86777 3.47959 1.89707 3.23114 1.97607 2.99658C2.05507 2.76202 2.18205 2.54647 2.34892 2.36367C2.51579 2.18087 2.71889 2.03481 2.9453 1.93481C3.17171 1.8348 3.41646 1.78303 3.66397 1.7828H6.33823C6.77084 1.77854 7.19024 1.93174 7.51826 2.21383C7.84627 2.49592 8.06052 2.88767 8.12107 3.31604C8.23394 4.17186 8.44327 5.01217 8.74506 5.82093C8.865 6.13999 8.89096 6.48675 8.81986 6.82011C8.74876 7.15347 8.58359 7.45946 8.34392 7.70183L7.21182 8.83393C8.48081 11.0656 10.3286 12.9135 12.5603 14.1824L13.6924 13.0503C13.9348 12.8107 14.2408 12.6455 14.5742 12.5744C14.9075 12.5033 15.2543 12.5293 15.5733 12.6492C16.3821 12.951 17.2224 13.1603 18.0782 13.2732C18.5112 13.3343 18.9067 13.5524 19.1894 13.886C19.4721 14.2197 19.6223 14.6456 19.6115 15.0828Z" stroke="white" stroke-width="1.62247" stroke-linecap="round" stroke-linejoin="round"/>
</svg>
