<svg width="36" height="36" viewBox="0 0 36 36" fill="none" xmlns="http://www.w3.org/2000/svg">
<path d="M32.1175 24.7012V29.0808C32.1191 29.4874 32.0358 29.8899 31.8729 30.2624C31.7101 30.6349 31.4712 30.9693 31.1716 31.2442C30.872 31.519 30.5183 31.7283 30.1331 31.8585C29.748 31.9888 29.3399 32.0372 28.935 32.0006C24.4427 31.5125 20.1276 29.9774 16.3363 27.5188C12.809 25.2774 9.81851 22.2869 7.57713 18.7596C5.10993 14.9511 3.57454 10.615 3.09535 6.10257C3.05886 5.69887 3.10684 5.29199 3.23622 4.90785C3.3656 4.52371 3.57355 4.17071 3.84683 3.87134C4.12011 3.57197 4.45273 3.33278 4.82352 3.169C5.19431 3.00522 5.59513 2.92045 6.00048 2.92006H10.3801C11.0886 2.91309 11.7754 3.16398 12.3126 3.62596C12.8498 4.08794 13.2006 4.72949 13.2998 5.43103C13.4847 6.8326 13.8275 8.20876 14.3217 9.53325C14.5181 10.0558 14.5606 10.6236 14.4442 11.1696C14.3278 11.7155 14.0573 12.2166 13.6648 12.6136L11.8107 14.4676C13.8889 18.1224 16.9151 21.1486 20.5699 23.2268L22.424 21.3728C22.8209 20.9803 23.322 20.7098 23.8679 20.5933C24.4139 20.4769 24.9818 20.5194 25.5043 20.7158C26.8288 21.2101 28.2049 21.5529 29.6065 21.7377C30.3156 21.8378 30.9633 22.195 31.4263 22.7414C31.8892 23.2878 32.1352 23.9853 32.1175 24.7012Z" fill="white"/>
</svg>
