<svg width="30" height="24" viewBox="0 0 30 24" fill="none" xmlns="http://www.w3.org/2000/svg">
<g filter="url(#filter0_d_22131_27)">
<path d="M23.8 4H6.2C4.99 4 4 4.9 4 6V18C4 19.1 4.99 20 6.2 20H23.8C25.01 20 26 19.1 26 18V6C26 4.9 25.01 4 23.8 4ZM14.329 14.79C14.527 14.93 14.769 15 15 15C15.231 15 15.473 14.93 15.671 14.79L17.376 13.58L22.238 18H7.751L12.613 13.58L14.318 14.79H14.329ZM23.8 6V6.51L15 12.73L6.2 6.51V6H23.8ZM23.8 9.04V16.58L19.136 12.34L23.8 9.04ZM10.864 12.34L6.2 16.58V9.04L10.864 12.34Z" fill="white"/>
<path d="M23.7998 3.5C25.24 3.5 26.5 4.58008 26.5 6V18C26.5 19.4199 25.24 20.5 23.7998 20.5H6.2002C4.75996 20.5 3.5 19.4199 3.5 18V6C3.5 4.58008 4.75996 3.5 6.2002 3.5H23.7998ZM15.96 15.1973V15.1982C15.6718 15.402 15.3272 15.5 15 15.5C14.6986 15.5 14.3835 15.4155 14.1104 15.2432C14.0821 15.2302 14.054 15.2155 14.0283 15.1973L12.6514 14.2197L9.04395 17.5H20.9443L17.3369 14.2197L15.96 15.1973ZM6.7002 15.4482L10.0664 12.3877L6.7002 10.0059V15.4482ZM19.9326 12.3877L23.2998 15.4482V10.0059L19.9326 12.3877ZM15 12.1162L22.9482 6.5H7.05176L15 12.1162Z" stroke="#73591F" stroke-linejoin="round"/>
</g>
<defs>
<filter id="filter0_d_22131_27" x="0" y="0" width="30" height="24" filterUnits="userSpaceOnUse" color-interpolation-filters="sRGB">
<feFlood flood-opacity="0" result="BackgroundImageFix"/>
<feColorMatrix in="SourceAlpha" type="matrix" values="0 0 0 0 0 0 0 0 0 0 0 0 0 0 0 0 0 0 127 0" result="hardAlpha"/>
<feOffset/>
<feGaussianBlur stdDeviation="1.5"/>
<feComposite in2="hardAlpha" operator="out"/>
<feColorMatrix type="matrix" values="0 0 0 0 0 0 0 0 0 0 0 0 0 0 0 0 0 0 0.4 0"/>
<feBlend mode="normal" in2="BackgroundImageFix" result="effect1_dropShadow_22131_27"/>
<feBlend mode="normal" in="SourceGraphic" in2="effect1_dropShadow_22131_27" result="shape"/>
</filter>
</defs>
</svg>
