<svg width="50" height="50" viewBox="0 0 50 50" fill="none" xmlns="http://www.w3.org/2000/svg">
<rect width="50" height="50" rx="25" fill="#2D2D2D"/>
<path fill-rule="evenodd" clip-rule="evenodd" d="M38 16.7084L23.3827 30L16 23.2869L17.6743 21.5784L23.3827 26.7691L36.3257 15L38 16.7084Z" fill="white"/>
<path d="M23.5 13C26.4111 13 29.0873 13.9983 31.2119 15.667L28.9395 17.7129C27.3984 16.6344 25.5237 16 23.5 16C18.2533 16 14 20.2533 14 25.5C14 30.7467 18.2533 35 23.5 35C28.7467 35 33 30.7467 33 25.5C33 25.28 32.9893 25.062 32.9746 24.8457L35.626 22.458C35.8695 23.4319 36 24.4507 36 25.5C36 32.4036 30.4036 38 23.5 38C16.5964 38 11 32.4036 11 25.5C11 18.5964 16.5964 13 23.5 13Z" fill="white"/>
</svg>
