<svg width="173" height="125" viewBox="0 0 173 125" fill="none" xmlns="http://www.w3.org/2000/svg">
<path d="M169.581 87.1943C169.581 79.5426 167.275 73.3584 162.663 68.6416C158.104 63.9249 151.264 60.99 142.146 59.8369V59.208C146.967 58.2646 151.16 56.6142 154.724 54.2559C158.065 51.9957 160.715 49.1364 162.674 45.6787L163.057 44.9795C164.924 41.4418 165.916 37.3047 166.032 32.5693L166.044 31.6152C166.044 23.5933 163.289 16.9482 157.78 11.6807L157.239 11.1758C151.553 5.99718 143.112 3.32692 131.917 3.16504L130.825 3.15723C123.174 3.15723 116.334 4.33594 110.307 6.69434C104.28 9.05272 99.1702 11.8571 94.9775 15.1064L101.581 24.0684C104.149 22.3716 106.717 20.8552 109.285 19.5195L110.386 18.958C113.137 17.5824 116.073 16.4831 119.192 15.6602L119.819 15.499C123.173 14.6606 126.895 14.2412 130.982 14.2412L131.602 14.2461C137.966 14.3428 143.026 15.94 146.783 19.0371C150.661 22.1816 152.601 26.6622 152.601 32.4795C152.601 37.0391 151.448 40.9964 149.142 44.3506C146.888 47.6522 143.586 50.2204 139.236 52.0547L138.409 52.3877C134.221 53.9997 129.203 54.8057 123.356 54.8057V51.8057C129.315 51.8057 134.187 50.9274 138.07 49.29C141.987 47.6386 144.791 45.4039 146.664 42.6592L146.67 42.6504C148.591 39.8554 149.601 36.5079 149.601 32.4795C149.601 27.5582 148.051 24.0682 145.176 21.6025L144.894 21.3672L144.885 21.3594L144.875 21.3516C141.687 18.7234 137.169 17.2413 130.982 17.2412C127.097 17.2412 123.624 17.6398 120.547 18.4092C117.394 19.1975 114.455 20.2771 111.727 21.6416C108.907 23.0515 106.076 24.6938 103.234 26.5713L100.856 28.1426L90.8252 14.5283L93.1396 12.7344C97.6024 9.27583 102.976 6.34115 109.214 3.90039C115.646 1.3834 122.866 0.157227 130.825 0.157227C142.582 0.157298 152.017 2.74435 158.628 8.40039L159.259 8.95703C165.783 14.8983 169.044 22.5314 169.044 31.6152L169.031 32.6436C168.905 37.7565 167.829 42.362 165.709 46.3789C163.485 50.592 160.373 54.0557 156.404 56.7402L156.392 56.749L156.379 56.7568C155.104 57.6004 153.761 58.3556 152.355 59.0283C157.369 60.7065 161.555 63.1841 164.808 66.5439C170.055 71.911 172.581 78.8938 172.581 87.1943C172.581 94.3349 170.889 100.777 167.434 106.429C163.975 112.173 158.695 116.579 151.8 119.719L151.79 119.724C144.88 122.839 136.218 124.312 125.951 124.312C119.719 124.312 113.901 123.802 108.507 122.769C103.448 121.839 98.5798 120.305 93.9082 118.166L92.9766 117.73L91.2695 116.915V97.9297L95.5996 100.07C100.153 102.322 105.129 104.109 110.538 105.424C115.937 106.684 121.125 107.307 126.108 107.307V110.307L125.123 110.299C120.517 110.227 115.771 109.654 110.884 108.579L109.835 108.342C104.227 106.979 99.0387 105.118 94.2695 102.76V115.023C98.9863 117.277 103.913 118.876 109.049 119.819C113.913 120.753 119.169 121.248 124.816 121.307L125.951 121.312C135.648 121.312 143.649 119.96 149.952 117.255L150.557 116.989C157.003 114.054 161.772 110.019 164.864 104.883C168.009 99.7467 169.581 93.8503 169.581 87.1943ZM152.824 86.959C152.824 82.7974 151.807 79.6742 149.994 77.3447L149.621 76.8896L149.603 76.8682L149.585 76.8477C147.621 74.4824 144.732 72.5921 140.713 71.3008L139.894 71.0508L139.875 71.0459L139.856 71.04C135.676 69.7678 130.576 69.061 124.505 68.9775L123.278 68.9688H108.801V51.8057H123.356V54.8057H111.801V65.9688H123.278C130.091 65.9688 135.909 66.7025 140.73 68.1699C145.604 69.585 149.326 71.8386 151.894 74.9307C154.514 77.9703 155.824 81.9803 155.824 86.959L155.817 87.6318C155.676 94.5463 153.346 100.035 148.827 104.097C144.163 108.237 136.59 110.307 126.108 110.307V107.307C136.308 107.307 142.974 105.271 146.823 101.862C150.754 98.3283 152.824 93.4825 152.824 86.959Z" fill="#004E87" fill-opacity="0.06"/>
<path d="M78.7832 62.1172C78.7832 49.749 77.4205 39.162 74.6953 30.3574C72.0552 21.7772 68.0619 15.1641 62.7168 10.5186L62.1953 10.0752C56.7629 5.50587 49.9042 3.1497 41.6191 3.00684L40.8125 3C31.6934 3 24.3561 5.38411 18.8008 10.1533C13.2454 14.8701 9.20996 21.6576 6.69434 30.5146C4.2312 39.3192 3 49.8537 3 62.1172L3.00391 63.2812C3.08644 75.2551 4.44783 85.5321 7.08789 94.1123C9.86556 102.917 14.0316 109.652 19.5869 114.316C25.1946 118.981 32.27 121.312 40.8125 121.312C47.362 121.312 53.0018 120.083 57.7314 117.624L58.1865 117.382C62.8574 114.792 66.6918 111.072 69.6904 106.22L69.9785 105.747C72.8282 100.981 74.964 95.225 76.3857 88.4785L76.6602 87.1162C77.9867 80.2376 78.6915 72.4834 78.7744 63.8545L78.7832 62.1172ZM62.5762 62.1172C62.5762 52.3672 61.8694 44.2319 60.498 37.666L60.2148 36.374L60.2139 36.3691C58.7118 29.7794 56.3885 25.1228 53.457 22.0908L53.1719 21.8027L53.1562 21.7871C50.2022 18.8331 46.1968 17.2412 40.8125 17.2412C35.4282 17.2412 31.4228 18.8331 28.4688 21.7871L28.4531 21.8027C25.3894 24.8223 22.9647 29.5592 21.4141 36.3525C19.9054 43.1417 19.1279 51.7127 19.1279 62.1172L19.1377 64.0742C19.2255 73.1079 19.9266 80.6955 21.207 86.876L21.4902 88.1787C23.037 94.9642 25.4541 99.6997 28.5098 102.723C31.5269 105.606 35.5304 107.149 40.8125 107.149V110.149C34.8906 110.149 30.0953 108.394 26.4268 104.883C22.9235 101.43 20.3539 96.305 18.7197 89.5078L18.5654 88.8457C17.0423 82.1636 16.2329 73.9149 16.1377 64.1006L16.1279 62.1172C16.1279 52.2415 16.8193 43.8854 18.2012 37.0498L18.4863 35.7031C20.0602 28.7982 22.5688 23.5652 26.0117 20.0049L26.3477 19.666C29.9639 16.0498 34.7855 14.2412 40.8125 14.2412C46.8395 14.2412 51.6611 16.0498 55.2773 19.666C58.8934 23.2298 61.514 28.5757 63.1387 35.7031C64.7633 42.7782 65.5762 51.5832 65.5762 62.1172L65.5654 64.1104C65.4671 73.9706 64.6328 82.2418 63.0605 88.9238C61.4359 96.0514 58.7887 101.371 55.1201 104.883C51.5039 108.394 46.7346 110.149 40.8125 110.149V107.149C46.1006 107.149 50.0709 105.604 53.0303 102.73L53.0459 102.715C56.1419 99.7515 58.586 95.0513 60.1348 88.2568L60.1377 88.2471L60.1396 88.2363C61.7453 81.4121 62.5761 72.7261 62.5762 62.1172ZM81.7744 63.8818C81.6902 72.6535 80.973 80.5925 79.6055 87.6836C78.1408 95.2779 75.8117 101.837 72.5527 107.287C69.2626 112.789 64.9589 117.058 59.6406 120.006L59.6299 120.012L59.6182 120.018C54.2661 122.926 47.9589 124.312 40.8125 124.312C31.9799 124.312 24.3929 121.963 18.2578 117.101L17.6689 116.622L17.6582 116.613C11.7517 111.654 7.40782 104.669 4.50293 95.8721L4.22656 95.0146L4.22363 95.0049L4.21973 94.9941C1.38222 85.772 3.55123e-05 74.7928 0 62.1172C0 49.667 1.24867 38.846 3.80566 29.7061L3.80859 29.6943C6.44391 20.4159 10.7448 13.0578 16.8594 7.86621C23.0808 2.53119 31.165 0 40.8125 0C50.0267 0 57.8728 2.52514 64.1133 7.76855C70.2747 12.8935 74.71 20.2079 77.5605 29.4697C80.3992 38.6408 81.7832 49.5438 81.7832 62.1172L81.7744 63.8818Z" fill="#004E87" fill-opacity="0.06"/>
</svg>
