<svg width="174" height="125" viewBox="0 0 174 125" fill="none" xmlns="http://www.w3.org/2000/svg">
<path d="M170.289 107.791H111.564V107.241L136.563 82.3203C142.381 76.6077 147.465 71.2096 151.814 66.126C156.164 60.99 159.545 55.8281 161.956 50.6396C164.216 45.7264 165.416 40.4442 165.558 34.7939L165.572 33.6592C165.572 27.3702 164.157 21.9453 161.327 17.3857C158.549 12.8262 154.592 9.31478 149.456 6.85156C144.641 4.54226 138.974 3.3152 132.454 3.1709L131.14 3.15723C126.475 3.15723 122.073 3.73378 117.933 4.88672C113.845 6.03971 109.992 7.61198 106.376 9.60352C102.812 11.595 99.5104 13.8744 96.4707 16.4424L103.468 25.2471C107.644 22.0045 111.728 19.4527 115.72 17.5918L116.518 17.2285C120.763 15.3419 125.637 14.3984 131.14 14.3984L131.726 14.4033C137.743 14.5081 142.605 16.2361 146.312 19.5869C150.19 22.9935 152.129 27.9466 152.129 34.4453L152.117 35.4229C151.997 40.2869 150.98 44.783 149.063 48.9102C147.02 53.2599 144.032 57.6883 140.102 62.1953C136.223 66.7025 131.427 71.8385 125.715 77.6035L94.9775 108.813V119.74H170.289V107.791ZM168.568 34.2656C168.49 40.5272 167.201 46.4141 164.681 51.8926L164.676 51.9033C162.134 57.3732 158.597 62.7589 154.104 68.0645L154.094 68.0762C149.681 73.2334 144.54 78.6894 138.681 84.4443L118.271 104.791H173.289V122.74H91.9775V107.584L123.577 75.498L123.584 75.4922C129.264 69.7605 134.008 64.677 137.827 60.2383L137.834 60.2314L137.84 60.2236C141.63 55.8774 144.447 51.6792 146.348 47.6338C148.19 43.6616 149.129 39.2799 149.129 34.4453C149.129 28.7528 147.507 24.7903 144.615 22.0977L144.332 21.8408L144.315 21.8271L144.3 21.8125C141.14 18.9561 136.856 17.3985 131.14 17.3984C125.98 17.3984 121.533 18.282 117.735 19.9697C113.753 21.7397 109.61 24.2756 105.308 27.6162L102.964 29.4355L92.3105 16.0293L94.5342 14.1504C97.7242 11.4553 101.185 9.06711 104.912 6.98438L104.921 6.97949L104.929 6.97559C108.751 4.87056 112.816 3.21232 117.118 1.99902L117.127 1.99609C121.551 0.764195 126.226 0.157227 131.14 0.157227C138.557 0.157283 145.126 1.44807 150.753 4.14648C156.368 6.83931 160.776 10.7253 163.875 15.8037C167.047 20.9148 168.572 26.9087 168.572 33.6592L168.568 34.2656Z" fill="#004E87" fill-opacity="0.06"/>
<path d="M78.7832 62.1172C78.7832 49.749 77.4205 39.162 74.6953 30.3574C72.0552 21.7772 68.0619 15.1641 62.7168 10.5186L62.1953 10.0752C56.7629 5.50587 49.9042 3.1497 41.6191 3.00684L40.8125 3C31.6934 3 24.3561 5.38411 18.8008 10.1533C13.2454 14.8701 9.20996 21.6576 6.69434 30.5146C4.2312 39.3192 3 49.8537 3 62.1172L3.00391 63.2812C3.08644 75.2551 4.44783 85.5321 7.08789 94.1123C9.86556 102.917 14.0316 109.652 19.5869 114.316C25.1946 118.981 32.27 121.312 40.8125 121.312C47.362 121.312 53.0018 120.083 57.7314 117.624L58.1865 117.382C62.8574 114.792 66.6918 111.072 69.6904 106.22L69.9785 105.747C72.8282 100.981 74.964 95.225 76.3857 88.4785L76.6602 87.1162C77.9867 80.2376 78.6915 72.4834 78.7744 63.8545L78.7832 62.1172ZM62.5762 62.1172C62.5762 52.3672 61.8694 44.2319 60.498 37.666L60.2148 36.374L60.2139 36.3691C58.7118 29.7794 56.3885 25.1228 53.457 22.0908L53.1719 21.8027L53.1562 21.7871C50.2022 18.8331 46.1968 17.2412 40.8125 17.2412C35.4282 17.2412 31.4228 18.8331 28.4688 21.7871L28.4531 21.8027C25.3894 24.8223 22.9647 29.5592 21.4141 36.3525C19.9054 43.1417 19.1279 51.7127 19.1279 62.1172L19.1377 64.0742C19.2255 73.1079 19.9266 80.6955 21.207 86.876L21.4902 88.1787C23.037 94.9642 25.4541 99.6997 28.5098 102.723C31.5269 105.606 35.5304 107.149 40.8125 107.149V110.149C34.8906 110.149 30.0953 108.394 26.4268 104.883C22.9235 101.43 20.3539 96.305 18.7197 89.5078L18.5654 88.8457C17.0423 82.1636 16.2329 73.9149 16.1377 64.1006L16.1279 62.1172C16.1279 52.2415 16.8193 43.8854 18.2012 37.0498L18.4863 35.7031C20.0602 28.7982 22.5688 23.5652 26.0117 20.0049L26.3477 19.666C29.9639 16.0498 34.7855 14.2412 40.8125 14.2412C46.8395 14.2412 51.6611 16.0498 55.2773 19.666C58.8934 23.2298 61.514 28.5757 63.1387 35.7031C64.7633 42.7782 65.5762 51.5832 65.5762 62.1172L65.5654 64.1104C65.4671 73.9706 64.6328 82.2418 63.0605 88.9238C61.4359 96.0514 58.7887 101.371 55.1201 104.883C51.5039 108.394 46.7346 110.149 40.8125 110.149V107.149C46.1006 107.149 50.0709 105.604 53.0303 102.73L53.0459 102.715C56.1419 99.7515 58.586 95.0513 60.1348 88.2568L60.1377 88.2471L60.1396 88.2363C61.7453 81.4121 62.5761 72.7261 62.5762 62.1172ZM81.7744 63.8818C81.6902 72.6535 80.973 80.5925 79.6055 87.6836C78.1408 95.2779 75.8117 101.837 72.5527 107.287C69.2626 112.789 64.9589 117.058 59.6406 120.006L59.6299 120.012L59.6182 120.018C54.2661 122.926 47.9589 124.312 40.8125 124.312C31.9799 124.312 24.3929 121.963 18.2578 117.101L17.6689 116.622L17.6582 116.613C11.7517 111.654 7.40782 104.669 4.50293 95.8721L4.22656 95.0146L4.22363 95.0049L4.21973 94.9941C1.38222 85.772 3.55123e-05 74.7928 0 62.1172C0 49.667 1.24867 38.846 3.80566 29.7061L3.80859 29.6943C6.44391 20.4159 10.7448 13.0578 16.8594 7.86621C23.0808 2.53119 31.165 0 40.8125 0C50.0267 0 57.8728 2.52514 64.1133 7.76855C70.2747 12.8935 74.71 20.2079 77.5605 29.4697C80.3992 38.6408 81.7832 49.5438 81.7832 62.1172L81.7744 63.8818Z" fill="#004E87" fill-opacity="0.06"/>
</svg>
