<svg width="180" height="125" viewBox="0 0 180 125" fill="none" xmlns="http://www.w3.org/2000/svg">
<path d="M176.027 81.2988H158.812V4.17871H145.211L90.4961 82.085V93.0908H146.076V119.74H158.812V93.0908H176.027V81.2988ZM143.081 41.5996C143.091 39.5305 143.115 37.6203 143.155 35.8701C143.204 33.6966 143.275 31.6709 143.368 29.7939C142.71 30.8522 142.041 31.8571 141.362 32.8076L109.256 78.2988H143.076V43.7217L143.081 41.5996ZM146.076 81.2988H103.468L138.922 31.0645C140.232 29.2302 141.517 27.1604 142.774 24.8545C144.085 22.4961 145.238 20.2682 146.233 18.1719H146.862C146.81 19.9538 146.731 21.7624 146.626 23.5967C146.574 25.4308 146.495 27.3703 146.391 29.4141C146.286 31.4055 146.207 33.5803 146.154 35.9385C146.102 38.2445 146.076 40.8392 146.076 43.7217V81.2988ZM161.812 78.2988H179.027V96.0908H161.812V122.74H143.076V96.0908H87.4961V81.1367L143.652 1.17871H161.812V78.2988Z" fill="#004E87" fill-opacity="0.06"/>
<path d="M78.7832 62.1172C78.7832 49.749 77.4205 39.162 74.6953 30.3574C71.9701 21.5005 67.8029 14.7396 62.1953 10.0752C56.7629 5.50587 49.9042 3.1497 41.6191 3.00684L40.8125 3C31.6934 3 24.3561 5.38411 18.8008 10.1533C13.2454 14.8701 9.20996 21.6576 6.69434 30.5146C4.2312 39.3192 3 49.8537 3 62.1172L3.00391 63.2812C3.08644 75.2551 4.44783 85.5321 7.08789 94.1123C9.86556 102.917 14.0316 109.652 19.5869 114.316C25.1946 118.981 32.27 121.312 40.8125 121.312C47.362 121.312 53.0018 120.083 57.7314 117.624L58.1865 117.382C62.8574 114.792 66.6918 111.072 69.6904 106.22L69.9785 105.747C72.8282 100.981 74.964 95.225 76.3857 88.4785L76.6602 87.1162C77.9867 80.2376 78.6915 72.4834 78.7744 63.8545L78.7832 62.1172ZM62.5762 62.1172C62.5762 52.3672 61.8694 44.2319 60.498 37.666L60.2148 36.374L60.2139 36.3691C58.7118 29.7794 56.3885 25.1228 53.457 22.0908L53.1719 21.8027L53.1562 21.7871C50.2022 18.8331 46.1968 17.2412 40.8125 17.2412C35.4282 17.2412 31.4228 18.8331 28.4688 21.7871L28.4531 21.8027C25.3894 24.8223 22.9647 29.5592 21.4141 36.3525C19.9054 43.1417 19.1279 51.7127 19.1279 62.1172L19.1377 64.0742C19.2255 73.1079 19.9266 80.6955 21.207 86.876L21.4902 88.1787C23.037 94.9642 25.4541 99.6997 28.5098 102.723C31.5269 105.606 35.5304 107.149 40.8125 107.149V110.149C34.8906 110.149 30.0953 108.394 26.4268 104.883C22.9235 101.43 20.3539 96.305 18.7197 89.5078L18.5654 88.8457C17.0423 82.1636 16.2329 73.9149 16.1377 64.1006L16.1279 62.1172C16.1279 52.2415 16.8193 43.8854 18.2012 37.0498L18.4863 35.7031C20.0602 28.7982 22.5688 23.5652 26.0117 20.0049L26.3477 19.666C29.9639 16.0498 34.7855 14.2412 40.8125 14.2412C46.8395 14.2412 51.6611 16.0498 55.2773 19.666C58.8934 23.2298 61.514 28.5757 63.1387 35.7031C64.7633 42.7782 65.5762 51.5832 65.5762 62.1172L65.5654 64.1104C65.4671 73.9706 64.6328 82.2418 63.0605 88.9238C61.4359 96.0514 58.7887 101.371 55.1201 104.883C51.5039 108.394 46.7346 110.149 40.8125 110.149V107.149C46.1006 107.149 50.0709 105.604 53.0303 102.73L53.0459 102.715C56.1419 99.7515 58.586 95.0513 60.1348 88.2568L60.1377 88.2471L60.1396 88.2363C61.7453 81.4121 62.5761 72.7261 62.5762 62.1172ZM81.7744 63.8818C81.6902 72.6535 80.973 80.5925 79.6055 87.6836C78.1408 95.2779 75.8117 101.837 72.5527 107.287C69.2626 112.789 64.9589 117.058 59.6406 120.006L59.6299 120.012L59.6182 120.018C54.2661 122.926 47.9589 124.312 40.8125 124.312C31.9799 124.312 24.3929 121.963 18.2578 117.101L17.6689 116.622L17.6582 116.613C11.7517 111.654 7.40782 104.669 4.50293 95.8721L4.22656 95.0146L4.22363 95.0049L4.21973 94.9941C1.38222 85.772 3.55123e-05 74.7928 0 62.1172C0 49.667 1.24867 38.846 3.80566 29.7061L3.80859 29.6943C6.44391 20.4159 10.7448 13.0578 16.8594 7.86621C23.0808 2.53119 31.165 0 40.8125 0C50.0267 0 57.8728 2.52514 64.1133 7.76855C70.2747 12.8935 74.71 20.2079 77.5605 29.4697C80.3992 38.6408 81.7832 49.5438 81.7832 62.1172L81.7744 63.8818Z" fill="#004E87" fill-opacity="0.06"/>
</svg>
