<svg width="1339" height="169" viewBox="0 0 1339 169" fill="none" xmlns="http://www.w3.org/2000/svg">
<path d="M1247.62 5.4707V162.521H1335.06V146.408H1265.88V88.293H1331.08V72.3945H1265.88V21.584H1335.06V5.4707H1247.62ZM1338.06 24.584H1268.88V69.3945H1334.08V91.293H1268.88V143.408H1338.06V165.521H1244.62V2.4707H1338.06V24.584Z" fill="#004E87" fill-opacity="0.06"/>
<path d="M1089.99 83.7812C1089.99 71.616 1091.67 60.4382 1095.08 50.2773L1095.09 50.2656C1098.57 40.038 1103.63 31.158 1110.3 23.6719L1110.3 23.665L1110.31 23.6592C1117.07 16.1508 1125.32 10.3827 1135.02 6.35254C1144.83 2.23609 1155.97 0.214844 1168.4 0.214844C1176.04 0.214844 1183.43 0.924606 1190.58 2.34961L1192.01 2.64453C1199.12 4.16376 1205.63 6.30721 1211.52 9.09082L1212.69 9.65625L1215.34 10.9609L1205.51 31.7744L1202.81 30.543C1198.27 28.4651 1193.27 26.6507 1187.82 25.1055L1186.73 24.7998L1186.68 24.7881C1181.04 23.1566 1174.88 22.3281 1168.18 22.3281C1159.87 22.3281 1152.48 23.7699 1145.96 26.5928L1145.94 26.5986C1139.49 29.3547 1133.99 33.376 1129.42 38.6846L1129.42 38.6855C1124.92 43.932 1121.41 50.3372 1118.94 57.959C1116.47 65.5584 1115.21 74.1903 1115.21 83.8887C1115.21 96.7514 1117.21 107.791 1121.09 117.079C1125.03 126.248 1130.82 133.248 1138.45 138.198C1146.09 143.111 1155.76 145.664 1167.64 145.664V148.664C1155.33 148.664 1145.05 146.014 1136.81 140.715C1128.65 135.415 1122.49 127.932 1118.34 118.264C1114.26 108.524 1112.21 97.0658 1112.21 83.8887C1112.21 73.9342 1113.5 64.9824 1116.08 57.0332C1118.66 49.084 1122.35 42.3164 1127.15 36.7305C1132.02 31.0729 1137.89 26.776 1144.76 23.8398C1151.71 20.832 1159.52 19.3281 1168.18 19.3281C1175.13 19.3281 1181.57 20.1875 1187.52 21.9062C1193.53 23.5534 1199.05 25.5228 1204.06 27.8145L1211.37 12.3457C1205.42 9.40951 1198.76 7.15365 1191.38 5.57812C1184.01 4.0026 1176.35 3.21484 1168.4 3.21484C1156.29 3.21484 1145.55 5.18424 1136.17 9.12305C1126.86 12.9902 1118.98 18.5046 1112.54 25.666C1106.16 32.8275 1101.29 41.3496 1097.93 51.2324C1094.63 61.0436 1092.99 71.8932 1092.99 83.7812C1092.99 100.253 1095.64 114.54 1100.94 126.643C1106.31 138.745 1114.33 148.127 1125 154.787C1135.74 161.376 1149.1 164.67 1165.07 164.67C1173.73 164.67 1181.22 164.133 1187.52 163.059C1193.82 162.056 1199.84 160.48 1205.56 158.332V142.434C1199.69 144.224 1193.64 145.728 1187.41 146.945C1181.25 148.091 1174.66 148.664 1167.64 148.664V145.664C1174.49 145.664 1180.89 145.105 1186.84 143.999C1192.97 142.801 1198.92 141.323 1204.69 139.564L1208.56 138.383V160.411L1206.62 161.141C1200.69 163.363 1194.48 164.988 1187.99 166.021C1181.48 167.127 1173.83 167.67 1165.07 167.67C1149.2 167.67 1135.63 164.498 1124.5 157.985L1123.43 157.345L1123.42 157.338L1123.41 157.332C1112.2 150.337 1103.79 140.48 1098.19 127.859L1098.19 127.846C1092.69 115.282 1089.99 100.568 1089.99 83.7812Z" fill="#004E87" fill-opacity="0.06"/>
<path d="M949.312 107.199V5.4707H930.943V106.662C930.943 124.279 935.992 138.352 946.09 148.879C956.259 159.406 971.048 164.67 990.455 164.67C1004.06 164.67 1015.38 162.199 1024.4 157.258C1033.42 152.245 1040.16 145.406 1044.6 136.74C1049.11 128.075 1051.36 118.192 1051.36 107.092V5.4707H1033.21V107.307C1033.21 115.542 1031.71 122.811 1028.7 129.113C1025.76 135.344 1021.21 140.214 1015.05 143.723C1008.97 147.16 1001.13 148.879 991.529 148.879V145.879C1000.79 145.879 1008.08 144.216 1013.58 141.11C1019.21 137.898 1023.32 133.486 1025.98 127.834L1025.99 127.828L1025.99 127.821C1028.77 121.989 1030.21 115.175 1030.21 107.307V2.4707H1054.36V107.092C1054.36 118.608 1052.02 128.978 1047.26 138.126C1042.53 147.345 1035.36 154.6 1025.86 159.88L1025.85 159.885L1025.84 159.889C1016.26 165.138 1004.41 167.67 990.455 167.67C970.822 167.67 955.324 162.417 944.446 151.488L943.933 150.963L943.925 150.956C933.184 139.758 927.943 124.883 927.943 106.662V2.4707H952.312V107.199C952.312 119.997 955.674 129.427 961.991 135.938C968.328 142.397 977.987 145.879 991.529 145.879V148.879C977.493 148.879 966.93 145.262 959.84 138.029C952.822 130.796 949.312 120.52 949.312 107.199Z" fill="#004E87" fill-opacity="0.06"/>
<path d="M761.926 2.4707H812.299V5.4707H764.926V162.521H807.572C824.975 162.521 839.763 159.549 851.938 153.605C864.184 147.59 873.529 138.674 879.975 126.857C886.42 114.969 889.643 100.181 889.643 82.4922C889.643 65.6628 886.492 51.5547 880.189 40.168C873.959 28.7096 865.079 20.0801 853.549 14.2793C842.019 8.4069 828.269 5.4707 812.299 5.4707V2.4707C828.627 2.4707 842.86 5.4726 854.896 11.5996H854.897C866.973 17.6748 876.295 26.7357 882.813 38.7148C889.423 50.6579 892.643 65.2996 892.643 82.4922C892.643 100.531 889.358 115.846 882.612 128.287L882.608 128.294C875.862 140.662 866.054 150.013 853.26 156.298L853.254 156.302C840.57 162.494 825.305 165.521 807.572 165.521H761.926V2.4707ZM867.414 83.1367C867.414 69.7709 865.242 58.9115 861.068 50.4141L860.658 49.5996L860.653 49.5908L860.649 49.583C856.421 41.2567 850.28 35.0567 842.174 30.9053L841.383 30.5107L841.37 30.5039L841.357 30.498C832.856 26.2474 822.28 24.0469 809.506 24.0469H786.188V143.838H805.424V146.838H783.188V21.0469H809.506C822.611 21.0469 833.676 23.3027 842.699 27.8145C851.794 32.2546 858.669 39.0579 863.324 48.2246C868.051 57.3913 870.414 69.0286 870.414 83.1367C870.414 104.263 864.971 120.161 854.086 130.832C843.272 141.503 827.051 146.838 805.424 146.838V143.838C826.599 143.838 841.927 138.615 851.979 128.696L851.986 128.689C862.103 118.772 867.414 103.775 867.414 83.1367Z" fill="#004E87" fill-opacity="0.06"/>
<path d="M574.639 83.5664C574.639 67.1973 577.343 52.7008 582.84 40.1465C588.37 27.5161 596.782 17.6215 608.058 10.5557L608.064 10.5508H608.065C619.47 3.45139 633.592 0 650.256 0C666.221 0 679.874 3.42311 691.053 10.4453H691.054C702.251 17.4344 710.69 27.2806 716.362 39.8848C722.094 52.3903 724.906 67.0506 724.906 83.7812C724.906 96.1373 723.335 107.47 720.153 117.754L720.151 117.76C716.964 127.989 712.196 136.877 705.822 144.376C699.494 151.834 691.629 157.582 682.275 161.623C672.877 165.683 662.074 167.67 649.934 167.67C637.837 167.67 627.089 165.809 617.754 162.004L616.855 161.63L616.848 161.627C607.709 157.711 600.002 152.155 593.771 144.957L593.174 144.256L593.162 144.242C587.129 136.973 582.574 128.37 579.468 118.481L579.171 117.521L579.168 117.511L579.166 117.501C576.136 107.23 574.639 95.9101 574.639 83.5664ZM699.678 83.7812C699.678 64.2063 695.622 49.2601 687.865 38.6025L687.493 38.0986L687.486 38.0898L687.48 38.0811C679.742 27.5883 667.556 22.1133 650.256 22.1133C638.503 22.1133 629.099 24.6356 621.837 29.4551C614.521 34.3102 609.015 41.2446 605.35 50.4014C601.728 59.559 599.867 70.6601 599.867 83.7812C599.867 96.4189 601.612 107.272 605.021 116.403L605.355 117.282C608.955 126.519 614.399 133.525 621.648 138.447C628.91 143.328 638.27 145.879 649.934 145.879V148.879C637.831 148.879 627.84 146.229 619.963 140.93C612.157 135.63 606.356 128.111 602.561 118.371C598.765 108.632 596.867 97.1016 596.867 83.7812C596.867 70.3893 598.765 58.8952 602.561 49.2988C606.428 39.6309 612.3 32.1829 620.178 26.9551C628.055 21.7272 638.081 19.1133 650.256 19.1133C668.231 19.1133 681.444 24.8424 689.895 36.3008C698.417 47.6875 702.678 63.5143 702.678 83.7812C702.678 97.1016 700.816 108.632 697.092 118.371C693.368 128.111 687.603 135.63 679.797 140.93C672.062 146.229 662.108 148.879 649.934 148.879V145.879C661.682 145.879 670.996 143.323 678.102 138.455L678.111 138.447C685.356 133.529 690.761 126.529 694.29 117.3C697.853 107.983 699.678 96.8324 699.678 83.7812ZM577.639 83.5664C577.639 95.6693 579.107 106.698 582.043 116.652C585.051 126.607 589.527 135.165 595.471 142.326C601.486 149.488 609.006 155.002 618.029 158.869C627.124 162.736 637.759 164.67 649.934 164.67C661.75 164.67 672.134 162.736 681.086 158.869C690.038 155.002 697.521 149.523 703.537 142.434C709.624 135.272 714.208 126.75 717.287 116.867C720.367 106.913 721.906 95.8841 721.906 83.7812C721.906 67.3815 719.149 53.166 713.635 41.1348C708.192 29.0319 700.135 19.6504 689.465 12.9902C678.866 6.33008 665.796 3 650.256 3C633.999 3 620.464 6.36589 609.65 13.0977C598.908 19.8294 590.887 29.2467 585.588 41.3496C580.288 53.4525 577.639 67.5247 577.639 83.5664Z" fill="#004E87" fill-opacity="0.06"/>
<path d="M438.914 2.4707H484.346V5.4707H441.914V162.521H460.176V96.9941H492.832L531.289 162.521H552.559L509.482 91.9453C514.997 90.0833 520.189 87.4336 525.059 83.9961C529.928 80.5586 533.867 76.0827 536.875 70.5684C539.883 64.9824 541.387 58.0358 541.387 49.7285C541.387 39.6309 539.31 31.3236 535.156 24.8066C531.003 18.2897 524.701 13.4557 516.25 10.3047C507.871 7.08203 497.236 5.4707 484.346 5.4707V2.4707C497.457 2.4707 508.49 4.10589 517.327 7.50488C525.989 10.7402 532.699 15.723 537.252 22.5293L537.687 23.1943C542.228 30.32 544.387 39.2318 544.387 49.7285C544.387 58.3835 542.821 65.8528 539.517 71.9902L539.513 71.998L539.509 72.0049C536.293 77.8997 532.054 82.731 526.789 86.4473C522.727 89.3147 518.441 91.6611 513.938 93.4873L557.904 165.521H529.571L491.114 99.9941H463.176V165.521H438.914V2.4707ZM519.48 50.5879C519.48 40.8271 516.652 34.4872 511.605 30.7461L511.11 30.3926L511.104 30.3877L511.098 30.3838C505.473 26.4657 496.369 24.2617 483.271 24.2617H463.176V78.5254H485.098V81.5254H460.176V21.2617H483.271C496.592 21.2617 506.439 23.4818 512.812 27.9219C519.258 32.362 522.48 39.9173 522.48 50.5879C522.48 60.7572 519.437 68.4557 513.35 73.6836C507.334 78.9115 497.917 81.5254 485.098 81.5254V78.5254C497.608 78.5254 506.159 75.9574 511.382 71.4189L511.389 71.4131L511.396 71.4082C516.649 66.8962 519.48 60.1345 519.48 50.5879Z" fill="#004E87" fill-opacity="0.06"/>
<path d="M298.57 2.4707H342.605V5.4707H301.57V162.521H319.832V100.754H338.953C350.411 100.754 360.079 99.4648 367.957 96.8867C375.906 94.237 382.316 90.6562 387.186 86.1445C392.055 81.5612 395.564 76.2975 397.713 70.3535C399.933 64.3379 401.043 58 401.043 51.3398C401.043 36.5872 396.352 25.2721 386.971 17.3945C377.661 9.44531 362.872 5.4707 342.605 5.4707V2.4707C363.139 2.4707 378.788 6.47496 388.899 15.0967C399.099 23.6611 404.043 35.9001 404.043 51.3398C404.043 58.3406 402.875 65.0316 400.527 71.3926C398.209 77.7973 394.428 83.4471 389.241 88.3291L389.225 88.3457C383.971 93.2132 377.157 96.9819 368.905 99.7324L368.897 99.7354L368.891 99.7383C360.621 102.445 350.616 103.754 338.953 103.754H322.832V165.521H298.57V2.4707ZM379.137 52.0918C379.137 42.6203 376.249 35.9695 370.855 31.583L370.326 31.166L370.318 31.1592L370.31 31.1533C364.428 26.6001 354.815 24.0469 340.887 24.0469H322.832V82.0703H336.912V85.0703H319.832V21.0469H340.887C355.066 21.0469 365.486 23.625 372.146 28.7812C378.807 33.8659 382.137 41.6361 382.137 52.0918C382.137 60.1126 380.454 66.5579 377.088 71.4277C373.722 76.2259 368.673 79.6992 361.941 81.8477C355.281 83.9961 346.938 85.0703 336.912 85.0703V82.0703C346.749 82.0703 354.756 81.013 361.021 78.9922L361.029 78.9893C367.266 76.9987 371.712 73.8646 374.629 69.709C377.539 65.4913 379.137 59.707 379.137 52.0918Z" fill="#004E87" fill-opacity="0.06"/>
<path d="M190.824 151.35C190.824 146.337 189.571 142.792 187.064 140.715C184.558 138.566 181.479 137.492 177.826 137.492C174.317 137.492 171.345 138.566 168.91 140.715C166.475 142.792 165.258 146.337 165.258 151.35C165.258 156.291 166.475 159.908 168.91 162.199C171.345 164.419 174.317 165.529 177.826 165.529C181.479 165.529 184.558 164.419 187.064 162.199C189.571 159.908 190.824 156.291 190.824 151.35ZM193.824 151.35C193.824 156.744 192.455 161.335 189.089 164.413L189.071 164.43L189.054 164.445C185.947 167.197 182.139 168.529 177.826 168.529C173.622 168.529 169.914 167.175 166.889 164.416L166.871 164.4L166.854 164.384C163.579 161.301 162.258 156.722 162.258 151.35C162.258 145.974 163.548 141.371 166.925 138.465C169.954 135.792 173.65 134.492 177.826 134.492C182.095 134.492 185.876 135.762 188.978 138.404C192.474 141.302 193.824 145.929 193.824 151.35Z" fill="#004E87" fill-opacity="0.06"/>
<path d="M0 2.4707H50.373V5.4707H3V162.521H45.6465C63.0488 162.521 77.8372 159.549 90.0117 153.605C102.258 147.59 111.604 138.674 118.049 126.857C124.494 114.969 127.717 100.181 127.717 82.4922C127.717 65.6628 124.566 51.5547 118.264 40.168C112.033 28.7096 103.153 20.0801 91.623 14.2793C80.0931 8.4069 66.3431 5.4707 50.373 5.4707V2.4707C66.7013 2.4707 80.9346 5.4726 92.9707 11.5996H92.9717C105.047 17.6748 114.369 26.7357 120.888 38.7148C127.498 50.6579 130.717 65.2996 130.717 82.4922C130.717 100.531 127.432 115.846 120.687 128.287L120.683 128.294C113.936 140.662 104.128 150.013 91.334 156.298L91.3281 156.302C78.6442 162.494 63.3795 165.521 45.6465 165.521H0V2.4707ZM105.488 83.1367C105.488 69.7709 103.317 58.9115 99.1426 50.4141L98.7324 49.5996L98.7275 49.5908L98.7236 49.583C94.4954 41.2567 88.3545 35.0567 80.248 30.9053L79.457 30.5107L79.4443 30.5039L79.4316 30.498C70.9303 26.2474 60.3542 24.0469 47.5801 24.0469H24.2617V143.838H43.498V146.838H21.2617V21.0469H47.5801C60.6855 21.0469 71.75 23.3027 80.7734 27.8145C89.8685 32.2546 96.7435 39.0579 101.398 48.2246C106.125 57.3913 108.488 69.0286 108.488 83.1367C108.488 104.263 103.046 120.161 92.1602 130.832C81.3464 141.503 65.1257 146.838 43.498 146.838V143.838C64.6732 143.838 80.0013 138.615 90.0527 128.696L90.0605 128.689C100.177 118.772 105.488 103.775 105.488 83.1367Z" fill="#004E87" fill-opacity="0.06"/>
</svg>
