<svg width="173" height="125" viewBox="0 0 173 125" fill="none" xmlns="http://www.w3.org/2000/svg">
<path d="M169.817 83.2637C169.817 76.3081 168.317 70.3609 165.316 65.4219L165.021 64.9473C161.975 60.0734 157.7 56.3303 152.194 53.7188L151.657 53.4697C146.072 50.8804 139.528 49.5448 132.025 49.4639L131.297 49.46C127.314 49.46 123.75 49.6963 120.605 50.168C117.461 50.5872 114.893 51.0065 112.901 51.4258L115.81 16.7568H161.799V4.80762H104.646L100.244 58.7363L106.848 63.0605C109.049 62.5103 111.771 61.9993 115.016 61.5293L116.438 61.3311C120.317 60.807 123.881 60.5449 127.13 60.5449L128.07 60.5508C137.704 60.6777 144.78 62.7723 149.299 66.834C154.015 70.9743 156.374 76.8699 156.374 84.5215C156.374 90.2865 155.143 95.0824 152.68 98.9082C150.269 102.682 146.862 105.512 142.46 107.398L141.636 107.731C137.472 109.344 132.663 110.149 127.209 110.149V107.149C132.709 107.149 137.376 106.282 141.279 104.639C145.168 102.972 148.088 100.523 150.151 97.293L150.157 97.2832C152.235 94.0559 153.374 89.863 153.374 84.5215C153.374 77.5274 151.247 72.5356 147.319 69.0879L147.307 69.0762L147.293 69.0645C143.431 65.5934 136.933 63.5449 127.13 63.5449C124.039 63.5449 120.611 63.7941 116.84 64.3037C113.022 64.8196 109.944 65.3785 107.575 65.9707L106.302 66.2891L97.1094 60.2695L101.882 1.80762H164.799V19.7568H118.568L116.218 47.7744C117.437 47.5795 118.768 47.3854 120.208 47.1934C123.519 46.6997 127.22 46.46 131.297 46.46C139.444 46.46 146.679 47.854 152.919 50.7471C159.167 53.591 164.079 57.7874 167.554 63.3379C171.114 68.9405 172.817 75.6314 172.817 83.2637L172.812 84.0391C172.702 92.0242 170.897 99.1009 167.283 105.161L167.277 105.172C163.548 111.369 158.19 116.128 151.312 119.454L151.304 119.458L151.294 119.462C144.408 122.736 136.295 124.312 127.052 124.312C121.287 124.312 115.865 123.838 110.795 122.878L109.785 122.68C104.743 121.651 100.332 120.117 96.6113 118.025L95.876 117.6L94.4141 116.727V97.292L98.9629 100.033C102.258 102.019 106.284 103.668 111.086 104.944L112.057 105.195C117.291 106.504 122.34 107.149 127.209 107.149V110.149L126.243 110.142C121.732 110.067 117.101 109.47 112.349 108.353L111.329 108.105C105.879 106.743 101.24 104.909 97.4141 102.603V115.023C100.925 117.12 105.25 118.692 110.386 119.74C115.201 120.723 120.384 121.245 125.936 121.307L127.052 121.312C135.683 121.312 143.133 119.886 149.403 117.033L150.007 116.753C156.201 113.757 160.992 109.557 164.383 104.151L164.707 103.625C168.007 98.0908 169.708 91.5479 169.812 83.9971L169.817 83.2637Z" fill="#004E87" fill-opacity="0.06"/>
<path d="M78.7832 62.1172C78.7832 49.749 77.4205 39.162 74.6953 30.3574C71.9701 21.5005 67.8029 14.7396 62.1953 10.0752C56.7629 5.50587 49.9042 3.1497 41.6191 3.00684L40.8125 3C31.6934 3 24.3561 5.38411 18.8008 10.1533C13.2454 14.8701 9.20996 21.6576 6.69434 30.5146C4.2312 39.3192 3 49.8537 3 62.1172L3.00391 63.2812C3.08644 75.2551 4.44783 85.5321 7.08789 94.1123C9.86556 102.917 14.0316 109.652 19.5869 114.316C25.1946 118.981 32.27 121.312 40.8125 121.312C47.362 121.312 53.0018 120.083 57.7314 117.624L58.1865 117.382C62.8574 114.792 66.6918 111.072 69.6904 106.22L69.9785 105.747C72.8282 100.981 74.964 95.225 76.3857 88.4785L76.6602 87.1162C77.9867 80.2376 78.6915 72.4834 78.7744 63.8545L78.7832 62.1172ZM62.5762 62.1172C62.5762 52.3672 61.8694 44.2319 60.498 37.666L60.2148 36.374L60.2139 36.3691C58.7118 29.7794 56.3885 25.1228 53.457 22.0908L53.1719 21.8027L53.1562 21.7871C50.2022 18.8331 46.1968 17.2412 40.8125 17.2412C35.4282 17.2412 31.4228 18.8331 28.4688 21.7871L28.4531 21.8027C25.3894 24.8223 22.9647 29.5592 21.4141 36.3525C19.9054 43.1417 19.1279 51.7127 19.1279 62.1172L19.1377 64.0742C19.2255 73.1079 19.9266 80.6955 21.207 86.876L21.4902 88.1787C23.037 94.9642 25.4541 99.6997 28.5098 102.723C31.5269 105.606 35.5304 107.149 40.8125 107.149V110.149C35.0753 110.149 30.3957 108.502 26.7734 105.206L26.4268 104.883C22.9235 101.43 20.3539 96.305 18.7197 89.5078L18.5654 88.8457C17.0423 82.1636 16.2329 73.9149 16.1377 64.1006L16.1279 62.1172C16.1279 52.2415 16.8193 43.8854 18.2012 37.0498L18.4863 35.7031C20.0602 28.7982 22.5688 23.5652 26.0117 20.0049L26.3477 19.666C29.9639 16.0498 34.7855 14.2412 40.8125 14.2412C46.8395 14.2412 51.6611 16.0498 55.2773 19.666C58.8934 23.2298 61.514 28.5757 63.1387 35.7031C64.7633 42.7782 65.5762 51.5832 65.5762 62.1172L65.5654 64.1104C65.4671 73.9706 64.6328 82.2418 63.0605 88.9238C61.4359 96.0514 58.7887 101.371 55.1201 104.883C51.5039 108.394 46.7346 110.149 40.8125 110.149V107.149C46.1006 107.149 50.0709 105.604 53.0303 102.73L53.0459 102.715C56.1419 99.7515 58.586 95.0513 60.1348 88.2568L60.1377 88.2471L60.1396 88.2363C61.7453 81.4121 62.5761 72.7261 62.5762 62.1172ZM81.7744 63.8818C81.6902 72.6535 80.973 80.5925 79.6055 87.6836C78.1408 95.2779 75.8117 101.837 72.5527 107.287C69.2626 112.789 64.9589 117.058 59.6406 120.006L59.6299 120.012L59.6182 120.018C54.2661 122.926 47.9589 124.312 40.8125 124.312C31.9799 124.312 24.3929 121.963 18.2578 117.101L17.6689 116.622L17.6582 116.613C11.7517 111.654 7.40782 104.669 4.50293 95.8721L4.22656 95.0146L4.22363 95.0049L4.21973 94.9941C1.38222 85.772 3.55123e-05 74.7928 0 62.1172C0 49.667 1.24867 38.846 3.80566 29.7061L3.80859 29.6943C6.44391 20.4159 10.7448 13.0578 16.8594 7.86621C23.0808 2.53119 31.165 0 40.8125 0C50.0267 0 57.8728 2.52514 64.1133 7.76855C70.2747 12.8935 74.71 20.2079 77.5605 29.4697C80.3992 38.6408 81.7832 49.5438 81.7832 62.1172L81.7744 63.8818Z" fill="#004E87" fill-opacity="0.06"/>
</svg>
