<svg width="259" height="254" viewBox="0 0 259 254" fill="none" xmlns="http://www.w3.org/2000/svg">
<g clip-path="url(#clip0_229_155)">
<path d="M59.3633 253C40.4633 253 25.9966 247.633 15.9633 236.9C5.92995 226.167 0.913284 211 0.913284 191.4V62.6C0.913284 43 5.92995 27.8333 15.9633 17.1C25.9966 6.36666 40.4633 1 59.3633 1C78.2633 1 92.73 6.36666 102.763 17.1C112.797 27.8333 117.813 43 117.813 62.6V191.4C117.813 211 112.797 226.167 102.763 236.9C92.73 247.633 78.2633 253 59.3633 253ZM59.3633 218C72.6633 218 79.3133 209.95 79.3133 193.85V60.15C79.3133 44.05 72.6633 36 59.3633 36C46.0633 36 39.4133 44.05 39.4133 60.15V193.85C39.4133 209.95 46.0633 218 59.3633 218ZM200.55 253C181.65 253 167.183 247.633 157.15 236.9C147.117 226.167 142.1 211 142.1 191.4V64.7C142.1 22.2333 161.7 1 200.9 1C219.567 1 233.8 6.36666 243.6 17.1C253.4 27.6 258.3 42.7667 258.3 62.6V67.15H221.9V60.15C221.9 44.05 215.25 36 201.95 36C194.717 36 189.35 38.2167 185.85 42.65C182.35 47.0833 180.6 54.9 180.6 66.1V113H181.3C188.067 98.7667 199.733 91.65 216.3 91.65C230.3 91.65 240.917 96.4333 248.15 106C255.383 115.567 259 129.45 259 147.65V191.4C259 211 253.983 226.167 243.95 236.9C233.917 247.633 219.45 253 200.55 253ZM200.55 218C213.85 218 220.5 210.067 220.5 194.2V150.8C220.5 134.7 213.85 126.65 200.55 126.65C187.25 126.65 180.6 134.7 180.6 150.8V194.2C180.6 210.067 187.25 218 200.55 218Z" fill="#A38A77" fill-opacity="0.3"/>
</g>
<defs>
<clipPath id="clip0_229_155">
<rect width="259" height="253" fill="white" transform="translate(0 0.5)"/>
</clipPath>
</defs>
</svg>
