<svg width="237" height="253" viewBox="0 0 237 253" fill="none" xmlns="http://www.w3.org/2000/svg">
<g clip-path="url(#clip0_229_141)">
<path d="M197.75 62.1H157.5V34.8C168.467 34.8 177.217 33.8667 183.75 32C190.517 30.1333 195.883 27.1 199.85 22.9C203.817 18.4667 207.317 12.1667 210.35 4H236.25V249H197.75V62.1Z" fill="#A38A77" fill-opacity="0.3"/>
<path d="M59.3633 252.5C40.4633 252.5 25.9967 247.133 15.9633 236.4C5.93 225.667 0.91333 210.5 0.91333 190.9V62.1C0.91333 42.5 5.93 27.3333 15.9633 16.6C25.9967 5.86667 40.4633 0.5 59.3633 0.5C78.2633 0.5 92.73 5.86667 102.763 16.6C112.797 27.3333 117.813 42.5 117.813 62.1V190.9C117.813 210.5 112.797 225.667 102.763 236.4C92.73 247.133 78.2633 252.5 59.3633 252.5ZM59.3633 217.5C72.6633 217.5 79.3133 209.45 79.3133 193.35V59.65C79.3133 43.55 72.6633 35.5 59.3633 35.5C46.0633 35.5 39.4133 43.55 39.4133 59.65V193.35C39.4133 209.45 46.0633 217.5 59.3633 217.5Z" fill="#A38A77" fill-opacity="0.3"/>
</g>
<defs>
<clipPath id="clip0_229_141">
<rect width="237" height="252" fill="white" transform="translate(0 0.5)"/>
</clipPath>
</defs>
</svg>
